<svg width="30" height="29" viewBox="0 0 30 29" fill="none" xmlns="http://www.w3.org/2000/svg">
<path d="M22.5 7H25.5C27.1569 7 28.5 8.34315 28.5 10V19C28.5 20.6569 27.1569 22 25.5 22H22.5V28L16.5 22H10.5C9.67157 22 8.92157 21.6642 8.37868 21.1213M8.37868 21.1213L13.5 16H19.5C21.1569 16 22.5 14.6569 22.5 13V4C22.5 2.34315 21.1569 1 19.5 1H4.5C2.84315 1 1.5 2.34315 1.5 4V13C1.5 14.6569 2.84315 16 4.5 16H7.5V22L8.37868 21.1213Z" stroke="#2E4D90" stroke-width="2" stroke-linecap="round" stroke-linejoin="round"/>
</svg>
