<svg width="37" height="36" viewBox="0 0 37 36" fill="none" xmlns="http://www.w3.org/2000/svg">
<path d="M26.1666 12H29.1666C30.8235 12 32.1666 13.3431 32.1666 15V24C32.1666 25.6569 30.8235 27 29.1666 27H26.1666V33L20.1666 27H14.1666C13.3382 27 12.5882 26.6642 12.0453 26.1213M12.0453 26.1213L17.1666 21H23.1666C24.8235 21 26.1666 19.6569 26.1666 18V9C26.1666 7.34315 24.8235 6 23.1666 6H8.16663C6.50977 6 5.16663 7.34315 5.16663 9V18C5.16663 19.6569 6.50977 21 8.16663 21H11.1666V27L12.0453 26.1213Z" stroke="white" stroke-width="2" stroke-linecap="round" stroke-linejoin="round"/>
</svg>
