<svg width="21" height="20" viewBox="0 0 21 20" fill="none" xmlns="http://www.w3.org/2000/svg">
<path d="M10.5 19C12.28 19 14.0201 18.4722 15.5001 17.4832C16.9802 16.4943 18.1337 15.0887 18.8149 13.4442C19.4961 11.7996 19.6743 9.99002 19.3271 8.24419C18.9798 6.49836 18.1226 4.89472 16.864 3.63604C15.6053 2.37737 14.0016 1.5202 12.2558 1.17294C10.51 0.82567 8.70038 1.0039 7.05585 1.68509C5.41131 2.36628 4.00571 3.51983 3.01677 4.99987C2.02784 6.47991 1.5 8.21997 1.5 10C1.5 11.488 1.86 12.891 2.5 14.127L1.5 19L6.373 18C7.609 18.64 9.013 19 10.5 19Z" stroke="#090F1D" stroke-width="2" stroke-linecap="round" stroke-linejoin="round"/>
</svg>
