<?xml version="1.0" standalone="no"?>
<!DOCTYPE svg PUBLIC "-//W3C//DTD SVG 20010904//EN"
 "http://www.w3.org/TR/2001/REC-SVG-20010904/DTD/svg10.dtd">
<svg version="1.0" xmlns="http://www.w3.org/2000/svg"
 width="390.000000pt" height="844.000000pt" viewBox="0 0 390.000000 844.000000"
 preserveAspectRatio="xMidYMid meet">

<g transform="translate(0.000000,844.000000) scale(0.100000,-0.100000)"
fill="#000000" stroke="none">
<path d="M893 4993 c27 -4 27 -5 27 -78 0 -41 5 -77 10 -80 6 -4 10 23 10 74
l0 80 33 4 c17 2 1 4 -38 4 -38 0 -58 -2 -42 -4z"/>
<path d="M1033 4915 c0 -49 2 -73 4 -52 4 37 5 38 41 35 34 -3 38 -6 43 -38 4
-21 6 1 6 55 0 50 -1 79 -4 65 -11 -69 -12 -71 -46 -68 -30 3 -32 6 -38 48 -4
31 -6 18 -6 -45z"/>
<path d="M1160 4915 l0 -85 38 1 c30 2 32 3 10 6 -24 4 -28 9 -28 38 0 31 3
34 33 38 l32 4 -32 1 c-31 2 -33 5 -33 36 0 32 3 35 33 39 28 3 26 4 -10 5
l-43 2 0 -85z"/>
<path d="M1365 4975 c-35 -34 -33 -78 4 -116 27 -27 70 -42 56 -19 -3 6 -12
10 -19 10 -22 0 -46 35 -46 66 0 37 8 49 45 68 28 15 28 16 7 16 -13 0 -34
-11 -47 -25z"/>
<path d="M1460 4915 l0 -85 38 1 c36 1 36 2 7 8 -25 5 -31 12 -33 39 -3 30 -1
32 30 33 l33 1 -30 7 c-25 5 -31 12 -33 38 -3 29 -1 32 30 36 l33 4 -37 1 -38
2 0 -85z"/>
<path d="M1556 4993 c-10 -10 -7 -151 3 -158 6 -3 11 19 13 52 l3 58 19 -50
c30 -80 36 -76 34 21 -1 80 -2 84 -8 34 l-6 -55 -17 37 c-9 21 -17 42 -17 47
0 13 -16 22 -24 14z"/>
<path d="M1692 4993 c27 -4 27 -6 31 -86 l3 -82 2 82 2 82 33 4 c17 2 3 4 -33
4 -36 0 -53 -2 -38 -4z"/>
<path d="M1820 4915 c0 -50 4 -85 10 -85 6 0 10 14 10 31 l0 32 22 -29 c12
-16 23 -31 25 -33 2 -2 6 -2 9 2 3 3 -6 21 -21 40 -26 35 -26 35 -6 42 54 17
38 85 -20 85 l-29 0 0 -85z m51 65 c10 -6 19 -17 19 -25 0 -13 -28 -35 -44
-35 -3 0 -6 16 -6 35 0 38 2 40 31 25z"/>
<path d="M1940 4915 l0 -85 38 1 c36 1 36 2 7 8 -25 5 -31 12 -33 39 -3 30 -1
32 30 33 l33 1 -30 7 c-25 5 -31 12 -33 38 -3 29 -1 32 30 36 l33 4 -37 1 -38
2 0 -85z"/>
<path d="M2110 4915 c0 -50 4 -85 10 -85 6 0 10 18 10 39 0 36 3 40 28 44 l27
4 -27 2 c-25 1 -28 5 -28 35 0 30 4 35 28 39 22 3 20 4 -10 6 l-38 1 0 -85z"/>
<path d="M2222 4980 c-18 -30 -15 -104 6 -131 36 -44 79 8 69 84 -9 64 -48 89
-75 47z m46 -2 c15 -15 16 -92 1 -119 -25 -47 -59 40 -38 99 12 35 19 38 37
20z"/>
<path d="M2330 4914 c0 -54 4 -83 10 -79 6 3 10 18 10 32 l0 26 22 -29 c12
-16 23 -31 25 -33 2 -2 6 -2 9 2 3 3 -6 21 -20 40 l-26 34 25 11 c16 8 25 20
25 35 0 31 -18 47 -52 47 l-28 0 0 -86z m55 62 c22 -16 15 -41 -14 -49 -18 -4
-21 -1 -21 29 0 37 7 41 35 20z"/>
<path d="M920 4500 l0 -250 33 0 c46 0 148 51 181 91 42 49 56 90 56 159 0
135 -109 250 -237 250 l-33 0 0 -250z m115 181 c77 -48 109 -102 109 -181 -1
-30 -7 -66 -14 -80 -28 -56 -106 -120 -145 -120 -13 0 -15 26 -15 200 0 184 1
200 18 200 9 0 31 -9 47 -19z"/>
<path d="M1250 4500 c0 -243 1 -250 20 -250 19 0 20 7 20 96 0 54 4 94 9 92 5
-1 38 -43 73 -93 52 -73 69 -91 92 -93 38 -5 34 3 -54 123 -40 53 -70 97 -68
99 1 1 27 13 57 26 88 40 113 104 68 171 -34 51 -91 79 -159 79 l-58 0 0 -250z
m108 195 c111 -33 110 -129 -1 -165 -61 -19 -67 -12 -67 83 0 70 4 97 15 97 1
0 25 -7 53 -15z"/>
<path d="M1550 4500 l0 -251 103 3 c94 3 102 4 102 23 0 18 -8 20 -77 23 l-78
3 0 89 0 90 80 0 c73 0 80 2 80 20 0 18 -7 20 -80 20 l-80 0 0 95 0 95 80 0
c73 0 80 2 80 20 0 19 -7 20 -105 20 l-105 0 0 -250z"/>
<path d="M1880 4712 c-57 -57 -70 -113 -70 -304 0 -150 1 -158 20 -158 18 0
20 8 22 108 l3 107 92 3 92 3 3 -108 c3 -105 4 -108 26 -111 l24 -4 -4 174
c-3 155 -5 178 -26 223 -52 113 -114 136 -182 67z m126 -58 c16 -26 29 -67 32
-95 l5 -50 -94 3 -94 3 3 30 c10 96 46 155 92 155 24 0 34 -8 56 -46z"/>
<path d="M2150 4505 c0 -216 2 -246 16 -252 9 -3 20 0 25 8 5 8 9 99 9 204 l0
190 45 -80 c68 -120 64 -119 116 -20 24 46 47 85 52 85 4 0 7 -88 7 -196 0
-181 1 -195 18 -192 16 3 17 24 20 251 2 241 2 247 -18 247 -21 0 -51 -42 -97
-135 -15 -30 -30 -55 -33 -55 -3 0 -30 42 -60 93 -40 67 -61 93 -77 95 l-23 3
0 -246z"/>
<path d="M2582 4730 c-54 -33 -79 -122 -49 -180 18 -35 71 -68 125 -76 61 -9
92 -40 92 -94 0 -56 -26 -80 -89 -80 -55 0 -98 26 -103 63 -4 27 -48 38 -48
12 0 -65 65 -125 137 -125 123 0 184 86 139 195 -16 38 -47 57 -122 74 -69 17
-94 41 -94 92 0 81 91 128 153 79 13 -11 28 -31 31 -45 8 -33 46 -35 46 -2 0
28 -32 77 -62 93 -36 21 -118 17 -156 -6z"/>
</g>
</svg>
