<svg width="20" height="18" viewBox="0 0 20 18" fill="none" xmlns="http://www.w3.org/2000/svg">
<path d="M5.5 8V16C5.5 16.2652 5.39464 16.5196 5.20711 16.7071C5.01957 16.8946 4.76522 17 4.5 17H2.5C2.23478 17 1.98043 16.8946 1.79289 16.7071C1.60536 16.5196 1.5 16.2652 1.5 16V9C1.5 8.73478 1.60536 8.48043 1.79289 8.29289C1.98043 8.10536 2.23478 8 2.5 8H5.5ZM5.5 8C6.56087 8 7.57828 7.57857 8.32843 6.82843C9.07857 6.07828 9.5 5.06087 9.5 4V3C9.5 2.46957 9.71071 1.96086 10.0858 1.58579C10.4609 1.21071 10.9696 1 11.5 1C12.0304 1 12.5391 1.21071 12.9142 1.58579C13.2893 1.96086 13.5 2.46957 13.5 3V8H16.5C17.0304 8 17.5391 8.21071 17.9142 8.58579C18.2893 8.96086 18.5 9.46957 18.5 10L17.5 15C17.3562 15.6135 17.0834 16.1402 16.7227 16.501C16.3619 16.8617 15.9328 17.0368 15.5 17H8.5C7.70435 17 6.94129 16.6839 6.37868 16.1213C5.81607 15.5587 5.5 14.7956 5.5 14" stroke="#090F1D" stroke-width="1.5" stroke-linecap="round" stroke-linejoin="round"/>
</svg>
