<svg width="36" height="36" viewBox="0 0 36 36" fill="none" xmlns="http://www.w3.org/2000/svg">
<path d="M16.5 8.82328V28.8603C16.5 30.3182 15.3182 31.5 13.8603 31.5C12.7447 31.5 11.7495 30.7987 11.3743 29.7481L8.15471 20.5243M27 19.5C29.4853 19.5 31.5 17.4853 31.5 15C31.5 12.5147 29.4853 10.5 27 10.5M8.15471 20.5243C6.00645 19.6111 4.5 17.4815 4.5 15C4.5 11.6863 7.18629 9 10.5 9H13.2481C19.3991 9 24.6853 7.14886 27 4.5L27 25.5C24.6853 22.8511 19.3991 21 13.2481 21L10.5 21C9.66777 21 8.87515 20.8306 8.15471 20.5243Z" stroke="#2E4D90" stroke-width="2" stroke-linecap="round" stroke-linejoin="round"/>
</svg>
