<svg width="30" height="30" viewBox="0 0 30 30" fill="none" xmlns="http://www.w3.org/2000/svg">
<path d="M13.8333 5.82328V25.8603C13.8333 27.3182 12.6515 28.5 11.1936 28.5C10.078 28.5 9.08285 27.7987 8.70764 26.7481L5.48802 17.5243M24.3333 16.5C26.8186 16.5 28.8333 14.4853 28.8333 12C28.8333 9.51472 26.8186 7.5 24.3333 7.5M5.48802 17.5243C3.33976 16.6111 1.83331 14.4815 1.83331 12C1.83331 8.68629 4.5196 6 7.8333 6H10.5814C16.7324 6 22.0186 4.14886 24.3333 1.5L24.3333 22.5C22.0186 19.8511 16.7324 18 10.5814 18L7.83328 18C7.00108 18 6.20846 17.8306 5.48802 17.5243Z" stroke="#2E4D90" stroke-width="2" stroke-linecap="round" stroke-linejoin="round"/>
</svg>
