<svg width="36" height="36" viewBox="0 0 36 36" fill="none" xmlns="http://www.w3.org/2000/svg">
<path d="M7.68156 26.7056C10.729 24.9831 14.2497 24 18 24C21.7503 24 25.271 24.9831 28.3184 26.7056M22.5 15C22.5 17.4853 20.4853 19.5 18 19.5C15.5147 19.5 13.5 17.4853 13.5 15C13.5 12.5147 15.5147 10.5 18 10.5C20.4853 10.5 22.5 12.5147 22.5 15ZM31.5 18C31.5 25.4558 25.4558 31.5 18 31.5C10.5442 31.5 4.5 25.4558 4.5 18C4.5 10.5442 10.5442 4.5 18 4.5C25.4558 4.5 31.5 10.5442 31.5 18Z" stroke="white" stroke-width="2" stroke-linecap="round" stroke-linejoin="round"/>
</svg>
