<svg width="30" height="30" viewBox="0 0 30 30" fill="none" xmlns="http://www.w3.org/2000/svg">
<path d="M4.68156 23.7056C7.729 21.9831 11.2497 21 15 21C18.7503 21 22.271 21.9831 25.3184 23.7056M19.5 12C19.5 14.4853 17.4853 16.5 15 16.5C12.5147 16.5 10.5 14.4853 10.5 12C10.5 9.51472 12.5147 7.5 15 7.5C17.4853 7.5 19.5 9.51472 19.5 12ZM28.5 15C28.5 22.4558 22.4558 28.5 15 28.5C7.54416 28.5 1.5 22.4558 1.5 15C1.5 7.54416 7.54416 1.5 15 1.5C22.4558 1.5 28.5 7.54416 28.5 15Z" stroke="#2E4D90" stroke-width="2" stroke-linecap="round" stroke-linejoin="round"/>
</svg>
